Coordinates
version=1
nRows=10
nColumns=63
inDegrees=yes

Units are S.I. units (second, meters, Newtons, ...)
If the header above contains a line with 'inDegrees', this indicates whether rotational values are in degrees (yes) or radians (no).

endheader
time	pelvis_tilt	pelvis_list	pelvis_rotation	pelvis_tx	pelvis_ty	pelvis_tz	hip_flexion_r	hip_adduction_r	hip_rotation_r	knee_angle_r	knee_angle_r_beta	ankle_angle_r	subtalar_angle_r	mtp_angle_r	hip_flexion_l	hip_adduction_l	hip_rotation_l	knee_angle_l	knee_angle_l_beta	ankle_angle_l	subtalar_angle_l	mtp_angle_l	L5_S1_Flex_Ext	L5_S1_Lat_Bending	L5_S1_axial_rotation	L4_L5_Flex_Ext	L4_L5_Lat_Bending	L4_L5_axial_rotation	L3_L4_Flex_Ext	L3_L4_Lat_Bending	L3_L4_axial_rotation	L2_L3_Flex_Ext	L2_L3_Lat_Bending	L2_L3_axial_rotation	L1_L2_Flex_Ext	L1_L2_Lat_Bending	L1_L2_axial_rotation	L1_T12_Flex_Ext	L1_T12_Lat_Bending	L1_T12_axial_rotation	Abs_r3	Abs_r2	Abs_r1	Abs_t1	Abs_t2	neck_flexion	neck_bending	neck_rotation	arm_flex_r	arm_add_r	arm_rot_r	elbow_flex_r	pro_sup_r	wrist_flex_r	wrist_dev_r	arm_flex_l	arm_add_l	arm_rot_l	elbow_flex_l	pro_sup_l	wrist_flex_l	wrist_dev_l
     11.15094340	      4.33548433	     -4.11562987	     98.12525374	      0.27856306	      0.84920596	      0.80963815	      1.53807607	      6.81289469	      9.17461535	     14.53911313	      0.25375539	     26.82814923	    -12.95991997	      0.00000000	      1.75673289	     -4.37928559	      5.42651471	     16.67058273	      0.29095656	     33.09815008	    -12.04077180	      0.00000000	     -0.34519181	      0.47786437	     -0.13899110	     -0.64105571	      0.63555962	     -0.14767804	     -0.56711562	      1.16187944	     -0.14767804	     -0.39451972	      1.16187944	     -0.12161721	     -0.32054511	      0.97446103	     -0.11293027	     -0.19724260	      0.74021192	     -0.10424332	     -2.46567058	      5.40569738	     -0.77302678	      0.00000000	      0.00000000	     14.61312048	     -2.72181876	     -7.68334536	     -7.94577670	    -15.53838900	    -23.17324770	    119.75953101	     85.97497465	      0.63903603	      3.01118162	      9.86325776	     -6.01405710	    124.87572520	      4.48549101	      1.59721349	      3.85881343	    -20.70482066
     11.16981132	      4.12338818	     -3.91311443	     97.34905126	      0.27958156	      0.84903078	      0.80919796	      1.29300332	      6.57845283	      9.34073593	     14.56305746	      0.25417330	     27.38138979	    -11.92650066	      0.00000000	      1.18746603	     -4.26066349	      4.36691073	     16.29642026	      0.28442619	     32.91552366	    -11.60186144	      0.00000000	     -0.35024937	      0.47562871	      0.07266364	     -0.65044811	      0.63258618	      0.07720511	     -0.57542470	      1.15644365	      0.07720511	     -0.40030001	      1.15644365	      0.06358068	     -0.32524157	      0.96990207	      0.05903920	     -0.20013249	      0.73674887	      0.05449773	     -2.50179625	      5.38040709	      0.40413334	      0.00000000	      0.00000000	     13.54525000	     -4.12361029	     -9.93254364	     -8.44761095	    -15.68846479	    -20.35465546	    123.15300810	     85.19765500	      0.54650013	      2.63713269	     10.30228871	     -6.30333636	    122.02684784	      6.09929541	      1.78657760	      4.25923658	    -20.40229487
     11.18867925	      3.17177079	     -4.13892223	     97.13086142	      0.28394320	      0.84691696	      0.80817686	      1.54143186	      5.89941605	      9.93586059	     14.96826468	      0.26124550	     28.10091966	    -12.43441543	      0.00000000	      1.18247945	     -3.59783528	      3.44192947	     16.23338860	      0.28332608	     32.97994276	    -10.44504840	      0.00000000	     -0.34813709	      0.30175189	     -0.03693196	     -0.64652539	      0.40133002	     -0.03924020	     -0.57195442	      0.73367955	     -0.03924020	     -0.39788588	      0.73367955	     -0.03231546	     -0.32328010	      0.61533246	     -0.03000722	     -0.19892553	      0.46741368	     -0.02769897	     -2.48670840	      3.41347776	     -0.20540447	      0.00000000	      0.00000000	     13.48918643	     -2.54701097	    -10.85972377	     -7.65500875	    -14.78258282	    -16.36966328	    126.92206390	     86.20308255	      1.14001299	      4.01325278	      0.38271918	    -13.22742840	     37.61998280	     29.92299906	     71.33084777	     -7.34762248	     -2.79012595
     11.20754717	      3.17264920	     -4.16287154	     96.89314105	      0.28455409	      0.84706269	      0.80789318	      1.50974855	      5.88772966	      9.89502073	     14.88689895	      0.25982540	     28.03932305	    -12.02093745	      0.00000000	      1.05726827	     -3.65964122	      3.00253866	     16.06570808	      0.28039950	     32.84016460	    -10.01340974	      0.00000000	     -0.33256657	      0.30474733	      0.20722327	     -0.61760938	      0.40531395	      0.22017472	     -0.54637362	      0.74096266	      0.22017472	     -0.38009033	      0.74096266	      0.18132036	     -0.30882132	      0.62144076	      0.16836890	     -0.19002854	      0.47205362	      0.15541745	     -2.37548974	      3.44736276	      1.15251364	      0.00000000	      0.00000000	     12.24731404	     -2.65171507	    -13.63177861	     -7.02554167	    -14.99663176	    -14.66464735	    131.33066246	     86.89905146	      1.40088903	      6.32802603	      1.31451849	    -12.99905379	     39.23407901	     28.96166171	     71.63945221	     -6.48694078	     -2.94040314
     11.22641509	      3.09126177	     -4.23560348	     96.59649424	      0.28541367	      0.84752646	      0.80767236	      1.53152019	      5.80287440	      9.99595283	     14.83982570	      0.25900382	     27.92419221	    -11.67889748	      0.00000000	      0.95614255	     -3.64141848	      2.52454459	     15.86592037	      0.27691255	     32.78389800	     -9.53377535	      0.00000000	     -0.32027272	      0.28715587	      0.47585467	     -0.59477846	      0.38191731	      0.50559559	     -0.52617604	      0.69819079	      0.50559559	     -0.36603969	      0.69819079	      0.41637284	     -0.29740524	      0.58556825	      0.38663192	     -0.18300383	      0.44480445	      0.35689100	     -2.28767598	      3.24836466	      2.64656092	      0.00000000	      0.00000000	     10.94962302	     -2.54123605	    -16.88694953	     -5.03392425	    -15.14397571	    -12.87274905	    135.38892696	     87.33177758	      1.41538603	      8.84991172	      2.47887972	    -12.96268272	     41.84783740	     27.94318614	     71.87650773	     -5.81722168	     -3.06830825
     11.24528302	      3.09597442	     -4.37317627	     96.12270605	      0.28642297	      0.84829234	      0.80761101	      1.62930708	      5.81376955	     10.42981606	     14.76808263	      0.25775167	     27.56962240	    -11.59505351	      0.00000000	      0.89331077	     -3.78931718	      1.22506764	     15.63569179	      0.27289430	     32.96317988	     -8.11835309	      0.00000000	     -0.29712264	      0.27407957	      0.78419536	     -0.55178645	      0.36452583	      0.83320757	     -0.48814278	      0.66639707	      0.83320757	     -0.33958146	      0.66639707	      0.68617094	     -0.27590808	      0.55890307	      0.63715873	     -0.16977588	      0.42454926	      0.58814652	     -2.12231730	      3.10044295	      4.36145936	      0.00000000	      0.00000000	      9.67228846	     -2.24695789	    -20.26667621	     -1.94014407	    -15.12940649	    -11.30865395	    138.90054434	     87.74233753	      1.52612625	     10.68501438	      5.17348717	    -13.47597678	     54.12606478	     26.14746080	     61.52812860	     -7.11642386	     -5.44704433
     11.26415094	      2.89848104	     -4.43010803	     95.98988778	      0.28741511	      0.84920838	      0.80793292	      1.67422353	      5.63561300	     10.49198148	     14.75784654	      0.25757301	     27.28006776	    -11.52938522	      0.00000000	      0.85553838	     -3.62222824	      1.21963202	     15.53617163	      0.27115735	     32.69737962	     -8.10452345	      0.00000000	     -0.30019829	      0.22540452	      0.80534503	     -0.55749824	      0.29978801	      0.85567909	     -0.49319577	      0.54804854	      0.85567909	     -0.34309662	      0.54804854	      0.70467690	     -0.27876413	      0.45964489	      0.65434283	     -0.17153330	      0.34915160	      0.60400877	     -2.14428636	      2.54982098	      4.47908743	      0.00000000	      0.00000000	      8.62507810	     -1.77180782	    -22.62250864	      2.81018331	    -14.50974314	     -8.59135228	    141.12390520	     88.23585887	      1.69014923	     11.18349000	      5.69131473	    -13.54881402	     55.66040288	     25.32279264	     62.24371285	     -6.97158644	     -5.46792405
     11.28301887	      2.72675003	     -4.43899088	     95.98293091	      0.28817471	      0.85027425	      0.80852065	      1.64501042	      5.49887077	     10.65229572	     14.65434198	      0.25576652	     26.84606875	    -11.80073431	      0.00000000	      0.78136130	     -3.48101290	      1.25923085	     15.40550638	      0.26887681	     32.20576650	     -8.08010702	      0.00000000	     -0.30079791	      0.18145729	      0.73860160	     -0.55861180	      0.24133820	      0.78476420	     -0.49418089	      0.44119525	      0.78476420	     -0.34378193	      0.44119525	      0.64627640	     -0.27932094	      0.37002771	      0.60011380	     -0.17187593	      0.28107734	      0.55395120	     -2.14856939	      2.05268116	      4.10788052	      0.00000000	      0.00000000	      7.50404555	     -1.65359525	    -24.82954021	      8.11142696	    -13.51418272	     -5.68927378	    142.74632250	     88.62299814	      0.58570297	     12.22497945	      7.41915163	    -13.86408863	     65.93100390	     23.76992120	     53.70719163	     -8.17074615	     -7.80960060
     11.30188679	      2.42437346	     -4.34972206	     96.01269327	      0.28923285	      0.85133538	      0.80927424	      1.55030040	      5.24038827	     10.54869689	     14.61786019	      0.25512979	     26.59616706	    -11.83868090	      0.00000000	      0.61593275	     -3.25428388	      1.23810852	     15.29726242	      0.26698760	     31.55040067	     -7.90905445	      0.00000000	     -0.32081016	      0.12199236	      0.48221543	     -0.59577654	      0.16224984	      0.51235390	     -0.52705901	      0.29661222	      0.51235390	     -0.36665393	      0.29661222	      0.42193850	     -0.29790431	      0.24876682	      0.39180004	     -0.18331092	      0.18896616	      0.36166157	     -2.29151488	      1.38000197	      2.68193757	      0.00000000	      0.00000000	      6.65177595	     -1.54980036	    -25.77596807	     13.99031697	    -11.77936570	     -2.52900477	    143.12532487	     88.88677115	      0.63149141	     13.22470128	      7.29845970	    -14.12768500	     66.96192927	     23.05556955	     54.02309104	     -8.41574575	     -7.94866112
     11.32075472	      2.08322087	     -4.21138570	     95.96195019	      0.29033294	      0.85230229	      0.81014423	      1.44885419	      4.94806448	     10.51803392	     14.63836953	      0.25548775	     26.44781701	    -11.84167451	      0.00000000	      0.44046999	     -2.98307816	      1.14681160	     15.28180543	      0.26671782	     30.84357059	     -7.81184897	      0.00000000	     -0.35398628	      0.06207698	      0.21434814	     -0.65738791	      0.08256239	      0.22774490	     -0.58156405	      0.15093398	      0.22774490	     -0.40457091	      0.15093398	      0.18755462	     -0.32871166	      0.12658738	      0.17415786	     -0.20226776	      0.09615725	      0.16076110	     -2.52848857	      0.70222724	      1.19214004	      0.00000000	      0.00000000	      6.12984555	     -1.62770574	    -26.38404143	     19.28999341	     -9.94653908	      0.20014428	    143.02901345	     89.08819885	      0.87280356	     13.73039682	      7.09646228	    -14.39835608	     67.68063551	     22.43635220	     54.23797357	     -8.66985925	     -7.88008002
